<?xml version="1.0" standalone="no"?>
<!DOCTYPE svg PUBLIC "-//W3C//DTD SVG 1.1//EN" "http://www.w3.org/Graphics/SVG/1.1/DTD/svg11.dtd" >
<!--
2013-9-30: Created.
-->
<svg>
<metadata>
Created by iconfont
</metadata>
<defs>

<font id="iconfont" horiz-adv-x="1024" >
  <font-face
    font-family="iconfont"
    font-weight="500"
    font-stretch="normal"
    units-per-em="1024"
    ascent="896"
    descent="-128"
  />
    <missing-glyph />
    
    <glyph glyph-name="liebiao" unicode="&#58886;" d="M431.524864 515.382016l454.747136 0c39.734272 0 71.88992 32.210944 71.88992 71.918592 0 39.707648-32.155648 71.903232-71.88992 71.903232L431.524864 659.20384c-39.71584 0-71.912448-32.195584-71.912448-71.903232C359.612416 547.59296 391.808 515.382016 431.524864 515.382016zM222.261248 659.20384l-86.244352 0c-39.723008 0-71.918592-32.195584-71.918592-71.903232 0-39.707648 32.195584-71.918592 71.918592-71.918592l86.244352 0c39.7312 0 71.926784 32.210944 71.926784 71.918592C294.188032 627.008256 261.992448 659.20384 222.261248 659.20384zM886.272 371.561216 431.524864 371.561216c-39.71584 0-71.912448-32.195584-71.912448-71.903232 0-39.709696 32.195584-71.918592 71.912448-71.918592l454.747136 0c39.734272 0 71.88992 32.208896 71.88992 71.918592C958.16192 339.364608 926.005248 371.561216 886.272 371.561216zM222.261248 371.561216l-86.244352 0c-39.723008 0-71.918592-32.195584-71.918592-71.903232 0-39.709696 32.195584-71.918592 71.918592-71.918592l86.244352 0c39.7312 0 71.926784 32.208896 71.926784 71.918592C294.188032 339.364608 261.992448 371.561216 222.261248 371.561216zM886.272 83.93088 431.524864 83.93088c-39.71584 0-71.912448-32.207872-71.912448-71.9104 0-39.71584 32.195584-71.917568 71.912448-71.917568l454.747136 0c39.734272 0 71.88992 32.201728 71.88992 71.917568C958.16192 51.723008 926.005248 83.93088 886.272 83.93088zM222.261248 83.93088l-86.244352 0c-39.723008 0-71.918592-32.207872-71.918592-71.9104 0-39.71584 32.195584-71.917568 71.918592-71.917568l86.244352 0c39.7312 0 71.926784 32.201728 71.926784 71.917568C294.188032 51.723008 261.992448 83.93088 222.261248 83.93088z"  horiz-adv-x="1024" />

    
    <glyph glyph-name="6" unicode="&#58880;" d="M65.472 746.528 447.36 746.528l0-381.824L65.472 364.704 65.472 746.528zM576.64 746.528l381.888 0 0-381.824L576.64 364.704 576.64 746.528zM65.472 235.36 447.36 235.36l0-381.888L65.472-146.528 65.472 235.36zM576.64 235.36l381.888 0 0-381.888L576.64-146.528 576.64 235.36z"  horiz-adv-x="1024" />

    
    <glyph glyph-name="zhexiantu" unicode="&#58890;" d="M896.467 708.073c-70.782 0-128.163-57.381-128.163-128.163 0-37.131 15.796-70.566 41.026-93.972l-154.632-322.054c-4.779 0.54-9.634 0.828-14.558 0.828-12.258 0-24.112-1.723-35.338-4.937l-120.896 175.534c17.967 22.059 28.745 50.207 28.745 80.876 0 70.782-57.38 128.163-128.163 128.163s-128.163-57.381-128.163-128.163c0-24.551 6.908-47.487 18.88-66.978l-99.673-118.841c-14.654 5.833-30.637 9.043-47.37 9.043-70.782 0-128.163-57.381-128.163-128.163s57.381-128.162 128.163-128.162 128.163 57.381 128.163 128.163c0 24.957-7.141 48.243-19.481 67.94l103.381 116.687c13.796-5.077 28.705-7.852 44.262-7.852 11.604 0 22.845 1.551 33.536 4.442l122.437-175.365c-17.809-22.010-28.482-50.031-28.482-80.55 0-70.782 57.381-128.163 128.163-128.163s128.163 57.381 128.163 128.163c0 37.121-15.789 70.551-41.009 93.956l154.996 322.026c4.656-0.513 9.384-0.784 14.176-0.784 70.782 0 128.163 57.381 128.163 128.163s-57.381 128.163-128.163 128.163zM128.163 53.232c-32.041 0-58.014 25.974-58.014 58.014 0 32.041 25.974 58.014 58.014 58.014 32.041 0 58.014-25.974 58.014-58.014 0-32.041-25.974-58.014-58.014-58.014zM326.475 416.184c0 32.041 25.974 58.014 58.014 58.014 32.041 0 58.014-25.974 58.014-58.014 0-32.041-25.974-58.014-58.014-58.014-32.041 0-58.014 25.974-58.014 58.014zM640.142-21.464c-32.041 0-58.014 25.974-58.014 58.014 0 32.041 25.974 58.014 58.014 58.014 32.041 0 58.014-25.974 58.014-58.014-0.001-32.041-25.975-58.014-58.014-58.014zM896.467 521.897c-32.041 0-58.014 25.974-58.014 58.014 0 32.041 25.974 58.014 58.014 58.014 32.041 0 58.014-25.974 58.014-58.014-0-32.041-25.974-58.014-58.014-58.014z"  horiz-adv-x="1025" />

    
    <glyph glyph-name="e633" unicode="&#58896;" d="M917.538807-58.437504 778.730503 241.492924l-8.348607-5.179727c-2.819774-1.747522-5.17873-4.063587-6.885356-6.709806l-34.94645-53.591671c-10.819276-16.633377-29.418615-27.078611-49.612867-27.975313l-65.043326-2.732997c-3.278599-0.108721-6.557197-1.005424-9.375974-2.425784l-9.114644-4.633128-64.845833-140.337385 89.411882-193.51412c9.026869-19.4731 36.302974-21.898884 48.826881-4.392744l67.992769 95.314756c7.671342 10.250732 17.594913 15.625958 24.130166 11.780812l129.889159-4.414687C911.680818-97.954242 926.105854-77.057789 917.538807-58.437504zM546.685119 113.153793c-8.807431-4.196247-18.730004-6.491366-28.521913-6.491366-9.944517 0-19.845147 2.295119-28.653575 6.818528l-16.238389 8.261829-41.591422 21.026121c-2.951437 1.42036-6.207094 2.295119-9.355028 2.425784l-65.064273 2.732997c-20.19525 0.895705-38.794589 11.341936-49.634811 27.975313l-34.948445 53.591671c-1.792407 2.75494-4.173306 5.071006-6.861418 6.730752l-17.945016 11.10255L106.484134-58.677888c-8.458326-18.27118 5.289446-38.838476 25.593417-38.838476 0.327162 0 0.676267 0 1.005424 0l129.911103 4.392744c0.329157 0 0.678262 0 1.005424 0 9.246306 0 17.813353-4.392744 23.124743-11.780812l67.992769-95.314756c5.639549-7.932673 14.426033-11.780812 23.101802-11.780812 10.491117 0 20.872514 5.616607 25.726077 16.173555l107.9025 233.575463 34.948445 75.511502L546.685119 113.153793zM206.606571 406.6148c3.846144-7.169628 5.988654-14.992582 6.316813-23.014027l2.818777-63.514245c0.459822-9.025871 5.289446-17.178979 13.070507-22.007606l4.064585-2.534505 14.426033-8.918147 14.445982-8.916152 21.986659-13.63905c6.994078-4.304969 12.851069-10.142011 17.24481-16.851817l34.970388-53.612618c4.960289-7.58257 13.28795-12.325416 22.554205-12.762297l65.044324-2.75494c8.239885-0.327162 16.238389-2.425784 23.560626-6.164204l3.497039-1.749517 54.246992-27.515492c4.064585-2.098622 8.566049-3.082102 12.959791-3.082102 4.392744 0 8.916152 0.98348 12.960788 3.082102l38.225048 19.364379 19.626707 9.90063c1.465245 0.766037 2.929493 1.441307 4.50346 1.988903 6.097375 2.425784 12.52291 3.847142 19.058163 4.175301l1.46325 0.108721 63.60202 2.75494c9.246306 0.43688 17.593916 5.179727 22.555202 12.785238l34.947447 53.589676c4.392744 6.820522 10.381398 12.545851 17.24481 16.829873l12.414189 7.714232 42.400349 26.315566c7.780064 4.85057 12.611683 12.982732 13.070507 22.008603l2.818777 63.513247c0.350103 8.042391 2.491615 15.845396 6.316813 22.99308l29.98616 56.47628c4.284022 7.932673 4.284022 17.395424 0 25.331089l-29.76772 56.454336c-3.8242 7.147684-5.965713 14.971635-6.315816 22.99308l-2.819774 63.403528c-0.43688 9.026869-5.288448 17.178979-13.070507 22.030547L752.110716 687.508011c-6.972134 4.304969-12.852067 10.120067-17.24481 16.851817l-34.947447 53.591671c-4.962284 7.605511-13.309893 12.325416-22.555202 12.763294l-65.064273 2.753943c-8.216944 0.328159-16.239387 2.426781-23.560626 6.163207L530.884608 808.917898c-4.044636 2.098622-8.568044 3.082102-12.960788 3.082102s-8.895206-0.98348-12.959791-3.082102l-57.85375-29.286952c-7.321239-3.736425-15.320741-5.835048-23.560626-6.163207l-65.044324-2.753943c-9.266255-0.43688-17.593916-5.157783-22.554205-12.763294l-34.970388-53.591671c-4.393741-6.841469-10.359454-12.545851-17.24481-16.851817l-54.923259-34.117574c-7.781061-4.851568-12.610685-13.003678-13.070507-22.030547l-2.818777-63.491304c-0.328159-8.042391-2.470669-15.86734-6.316813-23.014027l-29.98616-56.475282c-4.284022-7.913721-4.284022-17.376473 0-25.310143L206.606571 406.6148z"  horiz-adv-x="1024" />

    
    <glyph glyph-name="user" unicode="&#59272;" d="M512 257.9c-73.9 0-143.3 28.8-195.6 81-52.2 52.2-81 121.7-81 195.6 0 73.9 28.8 143.3 81 195.6C368.7 782.2 438.1 811 512 811c73.9 0 143.3-28.8 195.6-81 52.2-52.2 81-121.7 81-195.6 0-73.9-28.8-143.3-81-195.6C655.3 286.7 585.9 257.9 512 257.9zM512 729.9c-107.8 0-195.4-87.7-195.4-195.4C316.6 426.7 404.2 339 512 339c107.8 0 195.4 87.7 195.4 195.4C707.4 642.2 619.8 729.9 512 729.9zM943.4-211 80.6-211c-21.1 0-38.6 16.1-40.4 37.1-0.2 2.5-5.1 61.8 3.5 136 5.1 44.2 13.9 84.7 26.2 120.4 16 46.5 38.1 85.3 65.7 115.3 46.2 50.3 106.7 75.8 179.6 75.8 13.9 0 26.6-6.7 34-18.5 1.1-1.6 15.3-22.1 42-42.1 35.6-26.6 76.2-40.1 120.7-40.2 45.5 0.1 86.9 14.2 123 41.9 26 20 39.5 40 39.6 40.2 7.5 11.6 20.3 18.6 34.1 18.6 73 0 133.4-25.5 179.6-75.8 27.6-30 49.7-68.8 65.7-115.3 12.3-35.7 21.1-76.3 26.2-120.4 8.6-74.2 3.7-133.5 3.5-136C982-194.9 964.5-211 943.4-211zM119.8-129.9l784.4 0c0.1 21.9-0.8 51.6-4.7 84.3-6.9 58.4-24.8 138.5-71 188.7-26.6 28.9-59.6 44.9-100.6 48.6-29-33.8-100.1-99.5-215.4-99.9-0.1 0-0.2 0-0.3 0l-0.5 0c-0.1 0-0.2 0-0.3 0-115.2 0.3-186.4 66.1-215.4 99.9-41-3.7-74-19.7-100.6-48.6-46.2-50.2-64.1-130.3-71-188.7C120.6-78.3 119.7-108 119.8-129.9z"  horiz-adv-x="1024" />

    
    <glyph glyph-name="copy" unicode="&#59616;" d="M192 556c-35.3 0-64-28.7-64-64l0-576c0-35.3 28.7-64 64-64l448 0c35.3 0 64 28.7 64 64L704 364 512 556 192 556zM640-84 192-84 192 492l256 0 0-192 192 0L640-84zM512 364 512 465.5 613.5 364 512 364zM256 236l320 0 0-64-320 0 0 64ZM256 108l320 0 0-64-320 0 0 64ZM704 748 384 748c-35.3 0-64-28.7-64-64l0-64 64 0L384 684l256 0 0-64 0-128 192 0 0-384-64 0 0-64 64 0c35.3 0 64 28.7 64 64L896 556 704 748zM704 556 704 657.5 805.5 556 704 556z"  horiz-adv-x="1024" />

    
    <glyph glyph-name="angleright" unicode="&#58938;" d="M629.968 291.296 389.888 531.376c-16.704 16.704-16.704 43.792 0 60.496 16.704 16.704 43.792 16.704 60.496 0L720.352 321.92c8.448-8.448 12.56-19.552 12.448-30.624 0.096-11.072-4-22.176-12.448-30.624L450.384-9.296c-16.704-16.704-43.792-16.704-60.496 0-16.704 16.704-16.704 43.792 0 60.496L629.968 291.296z"  horiz-adv-x="1024" />

    
    <glyph glyph-name="tuichu" unicode="&#59455;" d="M114.581333 724.94464l0-183.135573 61.046613 0 0 122.08896 671.496533 0 0-732.542293-671.496533 0 0 122.093227-61.046613 0 0-183.135573 796.98432 0L911.565653 724.94464 114.581333 724.94464 114.581333 724.94464zM728.429227 297.626027l-305.342293 244.18304 0-122.08896L117.738667 419.720107l0-244.18304 305.347413 0 0-122.08896L728.429227 297.626027 728.429227 297.626027zM728.429227 297.626027"  horiz-adv-x="1024" />

    
    <glyph glyph-name="close" unicode="&#58891;" d="M579.888 300l190.064 190.064C778.624 498.736 784 510.752 784 524c0 26.512-21.488 48-48 48-13.248 0-25.248-5.376-33.936-14.064L512 367.888 321.936 557.936C313.248 566.624 301.248 572 288 572c-26.512 0-48-21.488-48-48 0-13.248 5.376-25.248 14.064-33.936L444.112 300 254.064 109.936C245.376 101.248 240 89.248 240 76c0-26.512 21.488-48 48-48 13.248 0 25.248 5.376 33.936 14.064L512 232.112l190.064-190.064C710.752 33.376 722.752 28 736 28c26.512 0 48 21.488 48 48 0 13.248-5.376 25.248-14.064 33.936L579.888 300z"  horiz-adv-x="1024" />

    
    <glyph glyph-name="search" unicode="&#58885;" d="M961.074344-178.428394c-18.372439-18.373463-48.115857-18.373463-66.468854 0L664.80264 51.343757c-1.180895 1.179872-2.066055 2.517333-3.088338 3.815909-61.71048-39.027875-134.632303-61.965284-213.042117-61.965284-220.654492 0-399.517159 178.852434-399.517159 399.527392 0 220.635049 178.862667 399.488507 399.517159 399.488507 220.635049 0 399.50795-178.852434 399.50795-399.488507 0-108.36915-43.298132-206.511377-113.327068-278.468223l226.220255-226.231511C979.42734-130.313559 979.42734-160.09484 961.074344-178.428394zM448.672184 698.218584c-168.721703 0-305.527508-136.795573-305.527508-305.497832 0-168.741146 136.804782-305.536718 305.527508-305.536718 168.722726 0 305.518299 136.795573 305.518299 305.536718C754.190483 561.424035 617.39491 698.218584 448.672184 698.218584z"  horiz-adv-x="1024" />

    
    <glyph glyph-name="icon018" unicode="&#58895;" d="M512.004093 671.63193c186.671517 0 359.879394-105.959264 445.740924-271.805476 5.40101-10.299577 4.898567-22.080901 0-31.149441l0-0.502443c-85.86153-165.819606-259.069407-271.805476-445.740924-271.805476-186.697099 0-360.380814 105.98587-445.7399 272.307919-5.402033 9.797134-4.924149 21.580504 0 31.149441C151.623279 565.672666 325.306994 671.63193 512.004093 671.63193L512.004093 671.63193zM512.004093 587.502857 512.004093 587.502857c111.862717 0 203.378014-91.766007 203.378014-203.6277s-91.515297-203.12321-203.378014-203.12321c-112.113427 0-203.37699 91.261517-203.37699 203.12321S399.890666 587.502857 512.004093 587.502857L512.004093 587.502857zM512.004093 518.320195 512.004093 518.320195c-73.855078 0-134.446062-60.114123-134.446062-134.446062 0-73.578786 60.114123-134.420479 134.446062-134.420479 73.829496 0 134.194328 60.842717 134.194328 134.420479C646.198421 458.207096 585.833589 518.320195 512.004093 518.320195L512.004093 518.320195zM575.534012 383.874133 575.534012 383.874133c0 11.530614 9.31925 20.849864 20.599154 20.849864 11.781324 0 20.623713-9.320273 20.623713-20.849864 0-57.878199-49.060369-104.978936-104.752786-104.978936-11.530614 0-20.849864 9.5454-20.849864 20.849864 0 11.530614 9.320273 20.849864 20.849864 20.849864 28.939099 0 55.189973 19.87056 62.072731 49.788963l0 0.979304C575.057151 375.283478 575.534012 379.455497 575.534012 383.874133L575.534012 383.874133zM453.122031 408.417109 453.122031 408.417109c-4.170996-9.821693-16.430204-14.971993-26.729781-10.299577-10.80202 3.919263-15.700587 16.177448-11.304464 26.728758 10.80202 24.769127 30.92329 45.39284 55.692417 56.170301 10.80202 3.945869 22.809495-0.476861 27.231201-11.028171 4.421706-10.80202 0-22.809495-10.776438-27.479865C471.76053 436.125171 459.753055 423.866986 453.122031 408.417109L453.122031 408.417109zM512.004093 602.223117 512.004093 602.223117c-154.793482 0-299.286364-83.652212-375.830691-218.348983 76.543304-134.420479 221.037209-218.323401 375.830691-218.323401s299.036677 83.902922 375.830691 218.323401C811.04077 518.571928 666.797575 602.223117 512.004093 602.223117L512.004093 602.223117z"  horiz-adv-x="1024" />

    
    <glyph glyph-name="save" unicode="&#59136;" d="M994.042187 668.748614 799.852858 865.625341c-16.544839 16.772966-49.059595 30.374659-72.621132 30.374659L85.334333 896c-47.121027 0-85.333845-38.201565-85.333845-85.325661l0-853.349701c0-47.127165 38.201565-85.324638 85.325661-85.324638l853.347655 0c47.130234 0 85.325661 38.205657 85.325661 85.335891L1023.999465 595.699872C1024.000488 619.262431 1010.588049 651.972579 994.042187 668.748614zM256.001 810.667178l341.333333 0 0-234.669096c0-11.779745-9.553716-21.330392-21.335507-21.330392L277.336507 554.66769c-11.783837 0-21.335507 9.55167-21.335507 21.330392L256.001 810.667178zM768.001-42.667178 256.001-42.667178 256.001 191.994757c0 11.785883 9.545532 21.337553 21.328346 21.337553l469.343307 0c11.778722 0 21.328346-9.556785 21.328346-21.337553L768.001-42.667178zM938.667666 0.009974c0-23.56972-19.095156-42.677152-42.664876-42.677152l-42.668968 0 0 298.662319c0 23.561536-19.104363 42.672037-42.672037 42.672037L213.339192 298.667178c-23.566651 0-42.671014-19.104363-42.671014-42.672037l0-298.662319-42.668968 0c-23.562559 0-42.663853 19.096179-42.663853 42.663853L85.335356 768.003325c0 23.562559 19.11357 42.663853 42.654647 42.663853l42.678175 0 0-298.672549c0-23.558467 19.101294-42.659761 42.66283-42.659761l426.674339 0c23.564605 0 42.661807 19.098225 42.661807 42.659761L682.667155 810.667178l22.898638 0c11.788952 0 28.048376-6.794708 36.320284-15.183237l181.808065-184.323601c8.269862-8.38546 14.974547-24.737976 14.974547-36.522836L938.668689 0.009974z"  horiz-adv-x="1024" />

    
    <glyph glyph-name="minus" unicode="&#58990;" d="M67.651284 447.515592l888.695385 0 0-148.0765L67.651284 299.439092 67.651284 447.515592z"  horiz-adv-x="1024" />

    
    <glyph glyph-name="1xiangxi" unicode="&#58978;" d="M1569.87911 784.264173M921.039535 649.335111 586.373383 649.335111c-20.568455 0-37.186947 16.660448-37.186947 37.19104 0 20.521383 16.618493 37.180807 37.186947 37.180807l334.667176 0c20.566408 0 37.188994-16.659425 37.188994-37.180807C958.228529 665.995559 941.605943 649.335111 921.039535 649.335111L921.039535 649.335111 921.039535 649.335111zM921.039535 463.407538 586.373383 463.407538c-20.568455 0-37.186947 16.659425-37.186947 37.19104 0 20.520359 16.618493 37.179784 37.186947 37.179784l334.667176 0c20.566408 0 37.188994-16.659425 37.188994-37.179784C958.228529 480.066963 941.605943 463.407538 921.039535 463.407538L921.039535 463.407538 921.039535 463.407538zM921.039535 230.216521 586.373383 230.216521c-20.568455 0-37.186947 16.626679-37.186947 37.193087 0 20.560268 16.618493 37.178761 37.186947 37.178761l334.667176 0c20.566408 0 37.188994-16.618493 37.188994-37.178761C958.228529 246.8432 941.605943 230.216521 921.039535 230.216521L921.039535 230.216521 921.039535 230.216521zM921.039535 44.289971 586.373383 44.289971c-20.568455 0-37.186947 16.626679-37.186947 37.188994s16.618493 37.180807 37.186947 37.180807l334.667176 0c20.566408 0 37.188994-16.618493 37.188994-37.180807S941.605943 44.289971 921.039535 44.289971L921.039535 44.289971 921.039535 44.289971zM102.954325 760.892883c-20.487613 0-37.184901-16.695241-37.184901-37.184901l0-223.108381c0-20.491707 16.697287-37.19104 37.184901-37.19104l223.112474 0c20.48966 0 37.193087 16.699334 37.193087 37.19104L363.259886 723.707982c0 20.48966-16.702404 37.184901-37.193087 37.184901L102.954325 760.892883 102.954325 760.892883 102.954325 760.892883zM102.954325 304.587346c-20.487613 0-37.184901-16.656355-37.184901-37.178761l0-223.118614c0-20.520359 16.697287-37.182854 37.184901-37.182854l223.112474 0c20.48966 0 37.193087 16.662495 37.193087 37.182854L363.259886 267.408585c0 20.522406-16.702404 37.178761-37.193087 37.178761L102.954325 304.587346 102.954325 304.587346 102.954325 304.587346zM102.954325 240.290971"  horiz-adv-x="1024" />

    
    <glyph glyph-name="mima" unicode="&#58951;" d="M852.341476 448.978217l-560.045859 0.964812c-0.225769 75.541053-20.548549 192.620161 43.942147 263.684628 39.202752 43.323044 105.289708 87.900168 175.787988 87.900168 104.153805 0 182.031925-78.562483 219.744246-175.787988 10.988623-28.043037 20.656143-43.151953 43.954493-43.954493 58.421378-1.769115 54.867272 59.855366 43.94391 87.898404C765.194462 810.052386 662.989682 889.426228 512.027516 889.426228c-102.599877 0-159.13749-21.058294-219.730135-87.89664-92.706588-102.143046-88.132992-267.295176-87.898404-351.584796l-32.681894-0.964812c-30.547667 0-55.218273-24.434253-55.218273-54.479231l0-461.34227c0-30.217832 24.721757-54.588588 55.218273-54.588588l680.569715 0c30.503572 0 55.218273 24.381339 55.218273 54.588588L907.505071 394.498986C907.561513 424.598642 882.845048 448.978217 852.341476 448.978217L852.341476 448.978217zM821.014199 10.772026c0-12.154511-4.238469-22.580474-12.904136-31.126202-8.59335-8.600406-18.976982-12.902372-31.122674-12.902372L248.595114-33.256548c-12.154511 0-22.529324 4.241997-31.071523 12.902372-8.600406 8.598642-12.957051 18.969927-12.957051 31.126202L204.56654 319.003792c0 24.245524 19.717788 43.973895 44.028574 43.973895l528.379928 0c24.309022 0 44.037393-19.730135 44.037393-43.973895L821.012435 10.772026 821.014199 10.772026z"  horiz-adv-x="1024" />

    
    <glyph glyph-name="xiazai" unicode="&#58997;" d="M919.724075 180.926932c-1.140986 27.353998-19.024286 42.460044-42.618657 41.899272-23.378453-0.554632-38.799678-15.928784-40.99467-43.88858-1.610684-20.539802-0.231267-41.299615-0.676405-61.951981-1.115404-51.828412-12.339026-63.804165-64.151066-64.826448-49.90869-0.985444-99.853196-0.323365-149.781328-0.327458-115.351168-0.00921-230.704382-0.094144-346.05555 0.065492-79.440283 0.109494-86.325088 6.972808-86.704734 84.203774-0.068562 13.770632 0.62524 27.626197-0.639566 41.293475-2.692319 29.087479-16.327874 44.221154-39.414685 45.526893-24.920576 1.411139-43.084261-15.533788-44.989657-45.49517-1.74269-27.442002-0.763386-55.07127-0.582261-82.615603 0.590448-89.169879 40.095183-129.182174 129.293715-129.691781 92.966345-0.532119 185.938829-0.118704 278.909268-0.140193 27.54638-0.022513 55.094806-0.031722 82.640162-0.021489 70.589708 0.024559 141.195789-0.956791 211.758891 0.39295 62.212924 1.189082 107.706047 37.176714 112.958678 91.756797C922.616962 98.059596 921.441183 139.707135 919.724075 180.926932zM197.8583 455.134107c88.756463-88.806605 177.525206-177.601954 266.292925-266.398326 3.647063-3.64911 7.361665-7.230682 10.984169-10.902304 14.284331-14.481829 30.947849-22.644743 51.134611-14.996552 6.584975 2.494821 11.479449 6.255471 15.664771 10.522658 2.762927 1.912559 5.470595 4.0175 7.9296 6.407943 45.635363 44.375673 240.102427 239.467977 285.027615 284.574291 4.825912 4.845355 9.463536 10.05296 13.269211 15.71082 12.214183 18.164708 10.541077 35.95898-3.945869 51.853995-14.818497 16.257266-33.480532 16.939811-51.874461 7.894807-8.930393-4.391007-16.285918-12.4608-23.556509-19.673062-30.239721-29.991058-139.611711-139.26481-212.845643-212.610282 0.037862 114.560152 0.050142 229.119281 0.027629 343.680457-0.00614 34.398438 1.090844 68.859297-0.615007 103.175871-1.587148 31.878035-17.058514 48.140417-41.968857 48.957015-25.551956 0.838088-41.055045-14.728446-44.538379-46.158273-1.320065-11.908214-0.623193-24.053835-0.629333-36.09201-0.040932-75.676563-0.021489-151.355173-0.021489-227.033783-0.001023-56.590879 0-113.181759 0-169.773661-3.928472-1.738597-7.855922-3.476171-11.784394-5.214768-22.74912 22.663162-45.525869 45.303812-68.245314 67.99665-47.452755 47.405683-94.28948 95.445816-142.575206 141.985782-21.800515 21.013593-47.071062 21.358447-64.429405 4.840238-18.709107-17.803481-18.050098-39.000246 2.325975-63.951521C187.818643 464.625272 192.996572 459.999928 197.8583 455.134107z"  horiz-adv-x="1024" />

    
    <glyph glyph-name="daochu" unicode="&#59037;" d="M819.424-64 189.888-64C120.352-64 64-7.648 64 61.888L64 691.424C64 760.928 122.464 832 192 832l352 0 0-64L192 768C157.216 768 128 738.784 128 704L126.944 61.888c0-34.752 28.192-62.944 62.944-62.944L832 0c34.752 0 64 29.248 64 64L896 416l64 0 0-352C960-5.536 888.928-64 819.424-64zM928 544c-18.144-0.032-32.032 14.688-32 32l-0.96 152.896L408.064 264.448c-12.768-12.16-33.472-12.16-46.24 0-12.768 12.192-12.768 31.936 0 44.096l482.784 460.48L704 768c-18.144-0.032-32.032 14.688-32 32 0.032 17.312 13.856 31.968 32 32l223.296 0C945.44 832.032 960.032 818.112 960 800.8L960 576C959.968 558.688 946.144 544.032 928 544z"  horiz-adv-x="1024" />

    
    <glyph glyph-name="code" unicode="&#58902;" d="M360.704 278.592c24.832 0 44.992-20.16 44.992-45.056l0-245.12c0-24.832-20.16-44.992-44.992-44.992L115.52-56.576c-24.832 0-45.056 20.16-45.056 44.992l0 245.12c0 24.896 20.16 45.056 45.056 45.056L360.704 278.592M360.704 349.056 115.52 349.056C51.712 349.056 0 297.344 0 233.472l0-245.12c0-63.808 51.712-115.52 115.52-115.52l245.184 0c63.744 0 115.52 51.712 115.52 115.52l0 245.12C476.16 297.344 424.448 349.056 360.704 349.056L360.704 349.056zM238.08 33.024 238.08 33.024c-43.008 0-77.888 34.944-77.888 77.952l0 0c0 43.072 34.88 77.952 77.888 77.952l0 0c43.008 0 77.952-34.88 77.952-77.952l0 0C316.032 67.968 281.152 33.024 238.08 33.024zM360.704 824.64c24.832 0 44.992-20.224 44.992-45.056l0-245.12c0-24.832-20.16-44.992-44.992-44.992L115.52 489.472c-24.832 0-45.056 20.16-45.056 44.992l0 245.12c0 24.832 20.16 45.056 45.056 45.056L360.704 824.64M360.704 895.104 115.52 895.104C51.712 895.104 0 843.392 0 779.584l0-245.12c0-63.808 51.712-115.52 115.52-115.52l245.184 0c63.744 0 115.52 51.712 115.52 115.52l0 245.12C476.16 843.392 424.448 895.104 360.704 895.104L360.704 895.104zM316.032 657.024 316.032 657.024c0-43.008-34.88-77.952-77.952-77.952l0 0c-43.008 0-77.888 34.944-77.888 77.952l0 0c0 43.072 34.88 77.952 77.888 77.952l0 0C281.152 734.912 316.032 700.032 316.032 657.024zM906.752 824.64c24.832 0 44.992-20.224 44.992-45.056l0-245.12c0-24.832-20.16-44.992-44.992-44.992l-245.12 0c-24.896 0-45.056 20.16-45.056 44.992l0 245.12c0 24.832 20.16 45.056 45.056 45.056L906.752 824.64M906.752 895.104l-245.12 0c-63.872 0-115.584-51.776-115.584-115.584l0-245.12c0-63.808 51.712-115.52 115.584-115.52l245.12 0c63.744 0 115.52 51.712 115.52 115.52l0 245.12C1022.272 843.392 970.496 895.104 906.752 895.104L906.752 895.104zM862.08 657.024 862.08 657.024c0-43.008-34.88-77.952-77.952-77.952l0 0c-43.008 0-77.888 34.944-77.888 77.952l0 0c0 43.072 34.88 77.952 77.888 77.952l0 0C827.2 734.912 862.08 700.032 862.08 657.024zM628.224 256.64 573.44 256.64c-19.456 0-35.264 15.808-35.264 35.264 0 19.52 15.808 35.264 35.264 35.264l54.784 0c19.52 0 35.264-15.744 35.264-35.264C663.488 272.448 647.744 256.64 628.224 256.64zM988.736 256.64l-233.6 0c-19.52 0-35.264 15.808-35.264 35.264 0 19.52 15.744 35.264 35.264 35.264l233.6 0C1008.256 327.104 1024 311.36 1024 291.904 1024 272.448 1008.256 256.64 988.736 256.64zM988.736 83.008l-88.384 0c-19.52 0-35.264 15.744-35.264 35.264s15.744 35.264 35.264 35.264l88.384 0c19.52 0 35.264-15.744 35.264-35.264S1008.256 83.008 988.736 83.008zM773.504 83.008 573.44 83.008c-19.456 0-35.264 15.744-35.264 35.264s15.808 35.264 35.264 35.264l200.064 0c19.52 0 35.264-15.744 35.264-35.264S793.024 83.008 773.504 83.008zM691.776-90.624 573.44-90.624c-19.456 0-35.264 15.808-35.264 35.264 0 19.52 15.808 35.264 35.264 35.264l118.336 0c19.456 0 35.264-15.744 35.264-35.264C726.976-74.816 711.168-90.624 691.776-90.624zM988.736-90.624 818.56-90.624c-19.456 0-35.264 15.808-35.264 35.264 0 19.52 15.808 35.264 35.264 35.264l170.176 0c19.52 0 35.264-15.744 35.264-35.264C1024-74.816 1008.256-90.624 988.736-90.624z"  horiz-adv-x="1024" />

    
    <glyph glyph-name="tubiao" unicode="&#59198;" d="M512 768c-211.84 0-384-172.16-384-384s172.16-384 384-384 384 172.16 384 384L512 384 512 768zM825.6 320c-29.44-145.92-158.72-256-313.6-256-176.64 0-320 143.36-320 320 0 154.24 110.08 283.52 256 313.6l0-313.6 0-64 64 0L825.6 320zM601.6 768l0-294.4 294.4 0C896 636.16 764.16 768 601.6 768zM665.6 695.04c75.52-21.76 135.68-81.92 157.44-157.44L665.6 537.6 665.6 695.04z"  horiz-adv-x="1024" />

    
    <glyph glyph-name="fankui" unicode="&#58910;" d="M555.881414 208.834302 117.411628 208.834302c-20.940885 0.037254-37.979141 17.081552-37.979141 37.978134L79.432487 762.750808c0 20.896582 17.038256 37.94088 38.003306 37.979141l773.88138 0c20.940885-0.038261 37.978134-17.081552 37.978134-37.979141l0-515.937366c0-20.934844-17.044297-37.978134-37.978134-37.978134L788.387861 208.835309c-21.784642 0-39.411917-17.627275-39.411917-39.411917s17.627275-39.411917 39.411917-39.411917l102.929312 0c64.474928 0.058398 116.801968 52.3945 116.801968 116.801968L1008.119141 762.750808c0 64.427605-52.37537 116.801968-116.801968 116.801968L117.411628 879.552777c-64.427605 0-116.801968-52.37537-116.801968-116.801968l0-515.937366c0-64.427605 52.37537-116.801968 116.801968-116.801968l427.788907 0-9.625678 3.986199 224.690115-224.613593c7.478024-7.478024 17.494368-11.544773 27.864124-11.544773 10.369755 0 20.386099 4.066748 27.865131 11.54578 15.403099 15.404106 15.403099 40.328169 0 55.731268L583.74453 197.290536c-7.37633 7.37633-17.325214 11.505505-27.812773 11.544773L555.881414 208.835309zM272.192737 569.990559c-36.024806 0-65.208936-29.18413-65.208936-65.208936s29.18413-65.208936 65.208936-65.208936c36.024806 0 65.208936 29.18413 65.208936 65.208936S308.217543 569.990559 272.192737 569.990559L272.192737 569.990559zM504.364904 569.990559c-36.024806 0-65.208936-29.18413-65.208936-65.208936s29.18413-65.208936 65.208936-65.208936 65.208936 29.18413 65.208936 65.208936S540.38971 569.990559 504.364904 569.990559L504.364904 569.990559zM736.536064 569.990559c-36.024806 0-65.208936-29.18413-65.208936-65.208936s29.18413-65.208936 65.208936-65.208936c36.024806 0 65.208936 29.18413 65.208936 65.208936S772.561877 569.990559 736.536064 569.990559L736.536064 569.990559z"  horiz-adv-x="1024" />

    
    <glyph glyph-name="qq" unicode="&#58943;" d="M981.977292 117.6286c-22.0291-20.560357-59.902634 1.856115-96.313558 52.25127-15.794352-42.680422-36.405814-81.98386-60.297161-117.308303 51.46835-18.399659 84.53193-47.0519 84.53193-79.434768 0-55.885821-98.858561-101.127601-220.926736-101.127601-72.462072 0-136.438756 15.859766-176.866493 40.481907-40.029122-24.623163-104.412597-40.481907-176.823565-40.481907-122.068175 0-220.976818 45.242801-220.976818 101.127601 0 31.989364 33.119795 61.035109 84.587123 79.434768-24.246012 35.280493-44.450682 74.628903-60.296139 117.308303-36.405814-49.995518-74.234376-72.811627-96.31458-52.25127C12.108186 145.931286 23.537193 245.977516 68.383423 340.811088c10.308797 21.685677 21.292173 41.165685 32.674164 58.090469 6.285852 275.753672 187.915282 497.097421 410.699155 497.097421l0.735905 0c222.799204 0 404.428635-220.978863 410.651117-497.097421 11.394256-16.924784 22.473709-36.398659 32.731401-58.090469C1000.376951 245.977516 1012.149381 145.931286 981.977292 117.6286L981.977292 117.6286 981.977292 117.6286 981.977292 117.6286zM981.977292 117.6286"  horiz-adv-x="1024" />

    
    <glyph glyph-name="tubiao1" unicode="&#58887;" d="M896-32 768-32C732.656-32 704-3.344 704 32L704 480C704 515.344 732.656 544 768 544L896 544C931.344 544 960 515.344 960 480L960 32C960-3.344 931.344-32 896-32ZM896 480 768 480 768 32 896 32 896 480ZM576-32 448-32C412.656-32 384-3.344 384 32L384 736C384 771.344 412.656 800 448 800L576 800C611.344 800 640 771.344 640 736L640 32C640-3.344 611.344-32 576-32ZM576 736 448 736 448 32 576 32 576 736ZM256-32 128-32C92.656-32 64-3.344 64 32L64 352C64 387.344 92.656 416 128 416L256 416C291.344 416 320 387.344 320 352L320 32C320-3.344 291.344-32 256-32ZM256 352 128 352 128 32 256 32 256 352Z"  horiz-adv-x="1024" />

    
    <glyph glyph-name="wenzhangda" unicode="&#58976;" d="M817.152 345.088c0 12.288-8.192 20.48-20.48 20.48L227.328 365.568c-12.288 0-20.48-8.192-20.48-20.48s8.192-20.48 20.48-20.48l569.344 0C806.912 324.608 817.152 334.848 817.152 345.088zM624.64 162.816 227.328 162.816c-12.288 0-20.48-8.192-20.48-20.48s8.192-20.48 20.48-20.48l397.312 0c12.288 0 20.48 8.192 20.48 20.48S636.928 162.816 624.64 162.816zM980.992 896 43.008 896C20.48 896 0 875.52 0 852.992l0-937.984C0-107.52 20.48-128 43.008-128l733.184 0 0 0c0 0 0 0 0 0L1024 119.808 1024 852.992C1024 875.52 1003.52 896 980.992 896zM43.008-87.04C43.008-87.04 40.96-84.992 40.96-84.992L40.96 852.992C40.96 852.992 43.008 855.04 43.008 855.04l937.984 0C980.992 855.04 983.04 852.992 983.04 852.992l0-692.224L776.192 160.768c-22.528 0-40.96-18.432-40.96-40.96L735.232-87.04 43.008-87.04zM776.192-70.656l0 188.416 188.416 0L776.192-70.656zM270.336 517.12l122.88 0c32.768 0 61.44 26.624 61.44 61.44l0 122.88c0 32.768-26.624 61.44-61.44 61.44l-122.88 0c-32.768 0-61.44-26.624-61.44-61.44l0-122.88C208.896 545.792 235.52 517.12 270.336 517.12zM249.856 701.44c0 10.24 10.24 20.48 20.48 20.48l122.88 0c10.24 0 20.48-10.24 20.48-20.48l0-122.88c0-10.24-10.24-20.48-20.48-20.48l-122.88 0c-10.24 0-20.48 10.24-20.48 20.48L249.856 701.44z"  horiz-adv-x="1024" />

    
    <glyph glyph-name="jiedianleilianjipingtai" unicode="&#59859;" d="M896 320 896 448l-64 0L576 448 576 512l192 0L768 832 320 832l0-320 192 0 0-64L256 448 192 448l0-64 0-64L0 320l0-320 384 0L384 320 256 320 256 384l576 0 0-64-192 0 0-320 384 0L1024 320 896 320zM384 576 384 768l320 0 0-192L384 576zM320 64 64 64l0 192 256 0L320 64zM960 64l-256 0 0 192 256 0L960 64z"  horiz-adv-x="1024" />

    
    <glyph glyph-name="username" unicode="&#59204;" d="M735.596498 318.547289c-23.385617 17.869996-57.964156 38.407752-100.723006 46.679136 9.127891 10.959609 18.451234 23.656793 24.931832 36.251645 18.975167 10.709923 44.239574 35.693944 39.145555 75.16798-3.164063 24.521486-18.565844 40.911782-29.953196 49.894364 2.225691 24.160259 2.378164 75.653027-28.370141 119.213126-15.783475 22.360264-38.772049 38.355563-68.326155 47.540759-23.059182 7.167237-44.431955 8.237615-55.120388 8.237615-2.991124 0-5.218862-0.080841-6.53688-0.146333-0.976234 0.032746-2.467191 0.066515-4.406356 0.066515-20.721951 0-91.016947-4.052293-125.564787-56.189743-29.203112-44.071751-29.644157-94.816482-27.835975-118.566396-11.406794-8.948813-26.969235-25.38618-30.15274-50.050929-5.092995-39.47506 20.171412-64.458057 39.145555-75.16798 6.481621-12.594853 15.803941-25.292036 24.931832-36.250622-42.763966-8.269337-77.338413-28.806069-100.725052-46.677089-37.939077-28.990265-68.341504-67.943438-83.411735-106.873076-18.052145-46.632063-12.224416-88.112804 15.987113-113.806999 29.335119-26.716478 82.027202-45.557592 156.609851-55.998385 56.381102-7.892761 109.028159-8.745175 129.046075-8.745175 3.462868 0 5.718235 0.026606 6.551206 0.038886 0.835018-0.01228 3.091408-0.038886 6.548136-0.038886 0.00307 0 0.00614 0 0.00921 0 20.024056 0 72.658833 0.852414 129.028679 8.743128 74.586742 10.440793 127.279848 29.281907 156.618037 56.000432 28.210505 25.692149 34.036187 67.170842 15.985066 113.799836C803.938002 250.600781 773.534552 289.554978 735.596498 318.547289zM775.802198 127.760035c-43.932582-40.010249-166.674067-54.206576-258.433934-54.205553-3.906983 0-6.094812 0.036839-6.191003 0.037862-0.118704 0.002047-0.237407 0.00307-0.357134 0.00307-0.118704 0-0.23843-0.001023-0.356111-0.00307-0.101307-0.002047-2.285043-0.037862-6.195096-0.037862-91.76089 0-214.502375 14.196327-258.433934 54.205553-20.805862 18.948561-12.380982 51.565423-5.507434 69.320808 24.474414 63.219857 102.240569 131.453914 185.203072 131.453914 1.318018 0 2.65548-0.017396 3.977591-0.051165 8.397251-0.202615 16.048511 4.78805 19.2269 12.564154 3.177366 7.776104 1.211595 16.709567-4.933359 22.437012-10.244318 9.547447-38.853913 39.099507-48.099485 60.891835-2.098801 4.948709-6.082532 8.856715-11.070126 10.861372-0.061398 0.024559-6.608511 2.935865-12.490475 8.775874-7.696286 7.640004-10.758018 16.621563-9.360182 27.458375 2.179642 16.886599 19.383466 26.574239 20.653389 27.265994 8.15575 3.941775 12.379958 12.619412 10.780531 21.546735-0.099261 0.572028-9.570983 57.779961 20.159132 102.645798 24.02416 36.255739 80.738859 38.092573 91.864244 38.092573 2.197038 0 3.469008-0.060375 3.477194-0.060375 0.892323-0.052189 1.627057-0.045025 2.51938 0.019443 0.01842 0.001023 1.831718 0.12075 4.946662 0.12075 14.808264 0 65.093531-2.788509 90.418312-38.663578 30.705326-43.499723 20.007683-101.187587 19.907399-101.70538-1.784646-8.936533 2.631944-17.962094 10.782577-22.036899 0.182149-0.091074 18.329461-9.893324 20.566408-27.225061 3.15997-24.488741-18.869766-34.93772-21.924335-36.261878-5.119601-1.962701-8.852622-5.779633-10.995425-10.832719-9.245572-21.792329-37.85619-51.344389-48.092321-60.885695-6.15314-5.723352-8.123005-14.657838-4.947685-22.438035 3.174296-7.780197 10.82658-12.781094 19.234063-12.570293 1.330298 0.034792 2.65241 0.051165 3.977591 0.051165 82.959434 0 160.724565-68.237127 185.200002-131.460054C788.18011 179.320341 796.60499 146.705526 775.802198 127.760035zM946.475346 331.805244c-13.893428 30.566156-38.697347 59.048861-69.843718 80.199577-27.508517 18.680455-58.4359 30.795377-90.512457 35.58445 8.828063 11.936867 19.980054 28.343535 27.235294 43.841507 15.874549 8.272407 38.639019 29.287023 34.259268 63.222927-2.940982 22.790052-18.726503 37.138852-28.221762 43.839461 1.190105 18.981307 0.339738 67.777663-34.310434 104.715947-22.799262 24.304546-54.001915 34.947953-90.240257 30.78105-26.533306-3.051499-46.472428-13.026688-47.308469-13.450337-5.856381-2.965541-8.200776-10.117428-5.236258-15.97381 2.965541-5.858428 10.118452-8.201799 15.97381-5.236258 0.664126 0.335644 66.840314 33.060977 109.47125-12.386098 34.989909-37.300534 27.445072-92.341105 27.368324-92.865038-0.76441-5.090948 1.77646-10.066263 6.380314-12.368702 0.199545-0.102331 20.015869-10.504238 22.544459-30.099529 3.656273-28.332279-23.084765-39.810704-24.158213-40.257889-2.932796-1.178849-5.276167-3.477194-6.510274-6.387477-11.07115-26.096355-38.768979-59.134819-39.045271-59.4633-2.921539-3.465938-3.617387-8.290827-1.794879-12.440333 1.822508-4.149507 5.846148-6.9022 10.374278-7.095605 80.344886-3.443425 140.261511-56.322773 161.931043-103.998609 8.841366-19.452028 19.896142-56.806797-5.40408-88.433098-11.873422-14.84101-30.108738-24.656563-54.199413-29.173436-6.451946-1.209548-10.701736-7.421017-9.492188-13.873985 1.071402-5.712095 6.062066-9.697873 11.669784-9.697873 0.726547 0 1.464351 0.066515 2.204202 0.205685 29.844725 5.595438 52.851719 18.276249 68.381413 37.688367C962.267007 249.027959 965.359438 290.259012 946.475346 331.805244zM158.77005 204.361667c-24.091698 4.516874-42.325991 14.332427-54.199413 29.173436-25.300222 31.626301-14.245446 68.981071-5.40408 88.433098 21.669532 47.674812 81.586157 100.55416 161.930019 103.997586 4.52813 0.193405 8.55177 2.946099 10.374278 7.095605 1.822508 4.15053 1.12666 8.975419-1.794879 12.440333-0.278339 0.329505-27.948539 33.307593-39.045271 59.4633-1.234107 2.910283-3.510964 5.180999-6.443759 6.359848-1.139963 0.474814-27.879977 11.952216-24.224728 40.284495 2.52859 19.59529 22.344914 29.996175 22.48613 30.069853 4.604878 2.302439 7.204076 7.30743 6.438643 12.398378-0.081864 0.548492-7.841595 55.330166 27.368324 92.865038 17.551748 18.712177 40.933271 26.617218 69.50091 23.505343 22.459524-2.449795 39.820937-11.044544 39.97034-11.119245 5.857405-2.964518 13.008268-0.621147 15.97381 5.236258 2.965541 5.857405 0.621147 13.009292-5.236258 15.97381-0.836041 0.423649-20.776186 10.398838-47.308469 13.450337-36.236296 4.163833-67.439972-6.475482-90.240257-30.78105-34.651194-36.939307-35.500539-85.73464-34.310434-104.715947-9.495258-6.700609-25.281803-21.049409-28.221762-43.839461-4.378727-33.936927 18.384719-54.95052 34.259268-63.222927 7.255241-15.497972 18.407232-31.904641 27.235294-43.841507-32.076556-4.78805-63.002916-16.902972-90.512457-35.58445-31.146371-21.150716-55.95029-49.632397-69.843718-80.199577-18.884093-41.546232-15.791661-82.777285 8.482185-113.121384 15.530718-19.413142 38.537711-32.092929 68.382437-37.688367 0.740874-0.13917 1.476631-0.205685 2.204202-0.205685 5.607718 0 10.599406 3.986801 11.669784 9.697873C169.472809 196.94065 165.223019 203.152119 158.77005 204.361667z"  horiz-adv-x="1024" />

    
    <glyph glyph-name="plus" unicode="&#58897;" d="M913.453 454.998h-330.386v354.794c0 39.581-32.116 71.649-71.649 71.649-39.587 0-71.657-32.066-71.657-71.649v-354.794h-330.363c-39.561 0-71.649-32.066-71.649-71.649 0-39.561 32.099-71.627 71.649-71.627h330.363v-354.794c0-39.561 32.066-71.627 71.657-71.627 39.534 0 71.649 32.066 71.649 71.627v354.794h330.386c39.534 0 71.627 32.066 71.627 71.627 0.004 39.587-32.098 71.649-71.627 71.649v0z"  horiz-adv-x="1024" />

    
    <glyph glyph-name="jiangxu" unicode="&#58917;" d="M461.488 727.163h-373.778c-27.24 0-49.445-22.148-49.445-49.445 0-27.477 22.148-49.445 49.445-49.445h373.778c27.3 0 49.445 22.148 49.445 49.445s-22.088 49.445-49.445 49.445zM461.488 430.427h-373.778c-27.24 0-49.445-22.088-49.445-49.445 0-27.477 22.148-49.445 49.445-49.445h373.778c27.3 0 49.445 22.148 49.445 49.445s-22.088 49.445-49.445 49.445zM461.488 133.688h-373.778c-27.24 0-49.445-22.148-49.445-49.445 0-27.536 22.148-49.445 49.445-49.445h373.778c27.3 0 49.445 22.148 49.445 49.445 0.060 27.358-22.088 49.445-49.445 49.445zM976.913 278.238h-178.066v504.234c0 27.417-21.969 49.624-49.445 49.624-27.3 0-49.445-22.088-49.445-49.624v-504.234h-178.066c-9.888 0-10.837-13.086-6.277-19.601 68.041-98.952 204.122-296.915 204.122-296.915s16.817-27.714 29.667-25.76c14.864 0 29.667 25.76 29.667 25.76s136.081 197.904 204.062 296.795c4.5 6.573 3.672 19.719-6.218 19.719z"  horiz-adv-x="1024" />

    
    <glyph glyph-name="liebiao1" unicode="&#59169;" d="M64.860728 12.190903V161.094234H958.278671v-148.903331H64.860728z m0 446.714087H958.278671v-148.908448H64.860728V458.90499z m0 297.806663H958.278671v-148.903331H64.860728V756.711653z"  horiz-adv-x="1024" />

    
    <glyph glyph-name="oa_" unicode="&#58920;" d="M513.553 438.371l-217.354 216.059h96.314l17.994 171.009 30.94-3.237-20.972-198.971h-48.675l141.882-141.105 142.399 138.903h-54.759l-20.972 201.171 31.069 3.237 17.994-173.21h103.174zM858.677-57.437h-693.355v395.871l68.352 195.863h100.845v-31.199h-78.708l-59.42-169.972v-359.493h631.217v362.73l-58.254 166.737h-61.491v31.199h83.628l67.187-192.627zM180.858 351.378h666.687v-31.199h-666.687zM310.182 172.862h403.637v-31.199h-403.637z"  horiz-adv-x="1024" />

    
    <glyph glyph-name="print" unicode="&#58935;" d="M720.316 494.051c0-14.233 11.537-25.77 25.77-25.77s25.77 11.537 25.77 25.77c0 14.233-11.537 25.77-25.77 25.77-14.233 0-25.77-11.537-25.77-25.77zM819.065 622.647h-22.938V745.184c0 44.613-36.295 80.909-80.909 80.909H330.069c-44.613 0-80.909-36.295-80.909-80.909v-122.537h-44.224c-62.462 0-113.273-50.811-113.273-113.273v-254.911c0-62.462 49.839-113.273 111.104-113.273h46.385v-134.559c0-44.613 36.295-80.909 80.909-80.909H715.21c44.613 0 80.909 36.295 80.909 80.909V141.19h35.738c55.406 0 100.473 50.811 100.473 113.273V509.374c0.007 62.462-50.803 113.273-113.264 113.273zM313.887 745.184c0 8.77 7.411 16.181 16.181 16.181h385.149c8.77 0 16.181-7.411 16.181-16.181v-122.537H313.884V745.184z m417.512-738.549c0-8.77-7.411-16.181-16.181-16.181H330.069c-8.77 0-16.181 7.411-16.181 16.181V307.122c0 8.77 7.411 16.181 16.181 16.181h385.149c8.77 0 16.181-7.411 16.181-16.181v-300.487z m136.212 247.83c0-26.311-16.368-48.545-35.745-48.545h-35.738V307.121c0 44.613-36.295 80.909-80.909 80.909H330.07c-44.613 0-80.909-36.295-80.909-80.909V205.92h-46.385c-25.575 0-46.377 21.773-46.377 48.545V509.376c0 26.773 21.773 48.545 48.545 48.545h614.122c26.773 0 48.545-21.773 48.545-48.545v-254.911zM641.803 186.778H390.929c-13.407 0-24.272 10.866-24.272 24.272s10.866 24.272 24.272 24.272h250.874c13.407 0 24.272-10.866 24.272-24.272s-10.866-24.272-24.272-24.272zM641.803 70.415H390.929c-13.407 0-24.272 10.866-24.272 24.272s10.866 24.272 24.272 24.272h250.874c13.407 0 24.272-10.866 24.272-24.272s-10.866-24.272-24.272-24.272z"  horiz-adv-x="1024" />

    
    <glyph glyph-name="fasongyoujian" unicode="&#58883;" d="M535.414 48.495H180.182c-25.758 0-49.252 9.874-66.902 26.032l282.56 282.562 17.65-17.65c17.004-17.006 39.679-26.372 63.847-26.372s46.842 9.365 63.845 26.37l326.36 326.356a99.06 99.06 0 0 0 2.797-23.41v-191.026c0-14.986 12.15-27.136 27.136-27.136s27.136 12.15 27.136 27.136V642.384c0 84.612-68.837 153.448-153.448 153.448h-590.98c-84.612 0-153.45-68.836-153.45-153.448V147.67c0-84.61 68.838-153.448 153.45-153.448h355.231c14.988 0 27.136 12.15 27.136 27.136 0 14.988-12.148 27.136-27.136 27.136zM84.301 122.3a98.96 98.96 0 0 0-3.295 25.371V642.384a99.005 99.005 0 0 0 3.48 26.057l272.977-272.976L84.301 122.3z m686.862 619.26c26.382 0 50.39-10.356 68.175-27.216l-336.533-336.53c-6.754-6.755-15.798-10.475-25.468-10.475s-18.714 3.72-25.469 10.474l-338.133 338.13c17.598 15.913 40.91 25.617 66.447 25.617h590.98zM989.32 183.385L824.426 348.277c-10.598 10.599-27.778 10.599-38.376 0-10.598-10.596-10.598-27.778 0-38.376l118.568-118.567H605.812c-14.987 0-27.136-12.148-27.136-27.136 0-14.987 12.149-27.136 27.136-27.136H904.62L786.05 18.492c-10.598-10.597-10.598-27.779 0-38.377 5.299-5.298 12.243-7.948 19.188-7.948s13.89 2.65 19.187 7.948L989.318 145.01c10.597 10.598 10.597 27.78 0.001 38.376z"  horiz-adv-x="1024" />

    
    <glyph glyph-name="tip" unicode="&#58884;" d="M511.927 896c-282.738-0.042-511.927-229.256-511.927-512 0-282.77 229.23-512 512-512 0.026 0 0.051 0 0.077 0 282.734 0.042 511.923 229.256 511.923 512 0 282.77-229.23 512-512 512-0.026 0-0.051-0-0.077-0zM511.927-59.402c-244.945 0-443.511 198.567-443.511 443.511s198.567 443.511 443.511 443.511c0-0 0-0 0-0 244.924 0 443.475-198.55 443.475-443.475 0-0.026-0-0.051-0-0.077 0-0.039 0-0.091 0-0.142 0-244.844-198.485-443.329-443.329-443.329-0.051 0-0.103 0-0.154 0zM460.734 104.415h102.385v120.595h-102.385v-120.668zM460.734 298.216h102.385v365.443h-102.385v-365.589z"  horiz-adv-x="1024" />

    
    <glyph glyph-name="fenxiang" unicode="&#58903;" d="M809.6768 228.6592a176 176 0 0 0 124.3392-51.9168h0.5376a181.1712 181.1712 0 0 0 51.2-126.208 175.8976 175.8976 0 1 0-351.7696 0 183.3216 183.3216 0 0 0 9.3184 58.0608l-186.88 113.3056c-3.0208-3.0464-6.0672-6.656-9.088-9.4976l-2.56-1.9456a234.4192 234.4192 0 0 0-167.1168-69.5296 243.2 243.2 0 0 0 0 486.144 238.2592 238.2592 0 0 0 169.6-71.168c3.0208-3.072 6.0672-6.7328 9.088-9.8048l186.88 113.664a175.6928 175.6928 0 1 0 166.4-120.32 174.08 174.08 0 0 0-124.3904 52.736l-1.0496 0.8448-185.856-112.7936a241.2288 241.2288 0 0 0 19.2512-95.7696 246.6304 246.6304 0 0 0-19.2512-96.6144l185.856-112.2048 1.0496 1.152 0.8448 0.256a173.0048 173.0048 0 0 0 123.5456 51.6608z m69.7856-107.8016a97.0496 97.0496 0 0 1-139.008 0 98.1504 98.1504 0 1 1 139.008 0zM392.4992 500.352a161.4592 161.4592 0 0 1-114.7136 48 164.1984 164.1984 0 1 1 113.0496-282.0096l1.664 1.8944a165.632 165.632 0 0 1 0 232.1152z m417.28 316.8768a99.4816 99.4816 0 0 1-83.5328-151.3728l0.5376-1.7152c3.5328-4.9408 7.68-10.24 11.8528-15.36l1.92-1.3568a95.2064 95.2064 0 0 1 69.12-29.0816 99.4304 99.4304 0 0 1 0 198.8352z"  horiz-adv-x="1024" />

    
    <glyph glyph-name="ziyuan" unicode="&#59033;" d="M506.94144 319.24224a51.54816 51.54816 0 0 0-31.51872 10.58816L25.10848 571.06432a35.38944 35.38944 0 0 0-8.06912 5.9392c-20.15232 19.8656-19.94752 52.38784 0.45056 72.4992 2.64192 2.60096 5.69344 4.77184 9.0112 6.43072L485.39648 883.95776a52.55168 52.55168 0 0 0 31.88736 10.67008c11.1616 0 21.77024-3.46112 30.53568-9.87136l450.17088-210.944c3.62496-1.69984 6.92224-3.9936 9.76896-6.77888a50.5856 50.5856 0 0 0 14.99136-36.82304 51.32288 51.32288 0 0 0-15.4624-35.69664c-2.21184-2.19136-4.7104-4.07552-7.43424-5.59104L539.72992 330.58816a52.5312 52.5312 0 0 0-32.78848-11.34592zM94.86336 612.43392l411.97568-220.71296L929.792 629.18656 517.4272 822.39488 94.86336 612.43392zM503.88992 171.08992a51.77344 51.77344 0 0 0-31.49824 10.56768L22.07744 422.89152C5.03808 432.00512-1.24928 453.0176 7.9872 469.8112s30.53568 23.01952 47.55456 13.88544l448.24576-240.128 458.30144 257.31072c16.83456 9.44128 38.25664 3.64544 47.84128-12.94336s3.70688-37.72416-13.12768-47.16544L536.65792 182.39488a52.89984 52.89984 0 0 0-32.768-11.30496zM503.88992 22.58944a51.77344 51.77344 0 0 0-31.49824 10.56768L22.07744 274.39104a34.34496 34.34496 0 0 0-14.09024 46.8992 35.30752 35.30752 0 0 0 47.55456 13.88544l448.24576-240.128 458.30144 257.29024c16.83456 9.46176 38.25664 3.66592 47.84128-12.94336s3.70688-37.72416-13.12768-47.18592L536.65792 33.8944a52.89984 52.89984 0 0 0-32.768-11.30496zM503.88992-125.91104a51.89632 51.89632 0 0 0-31.49824 10.5472L22.07744 125.87008a34.36544 34.36544 0 0 0-14.09024 46.91968 35.328 35.328 0 0 0 47.55456 13.88544L503.78752-53.4528l458.30144 257.29024c16.83456 9.46176 38.25664 3.66592 47.84128-12.94336s3.70688-37.72416-13.12768-47.18592L536.65792-114.60608a52.89984 52.89984 0 0 0-32.768-11.30496z"  horiz-adv-x="1024" />

    
    <glyph glyph-name="OA" unicode="&#58888;" d="M980.100561 796.932515H708.181877v-59.684664h280.011853c40.505231 0 95.050437-40.328008 95.050438-89.241471v-511.976666c0-39.993254-54.545206-86.760353-95.050438-86.760353h-280.011853v-57.223238l280.011853-2.461427A154.99109 154.99109 0 0 1 1142.101793 144.044118V640.011667c-8.09317 80.0062-72.858218 156.920848-162.001232 156.920848zM558.901296 896h-24.2992l-429.272743-79.986508a137.209746 137.209746 0 0 1-105.28997-127.994167v-599.977578c0-56.002371 38.851152-106.156392 105.28997-127.994166L534.602096-127.953331h24.2992a109.090413 109.090413 0 0 1 112.241038 112.004741V784.01495C663.009782 848.012033 630.243275 896 558.901296 896z m50.902296-911.94859a51.020444 51.020444 0 0 0-50.902296-51.689952h-8.093169L118.148461 29.57795c-38.910227 16.560476-59.074231 28.473779-59.07423 78.765641l0.334754 579.675734A79.632063 79.632063 0 0 0 118.148461 758.160128l432.659666 77.544774h8.093169a46.176357 46.176357 0 0 0 50.902296-51.689952v-799.96354z m362.203799 440.851292h-263.864897v-61.043372h263.864897c24.2992 0 40.485539 5.336372 40.48554 29.32051s-16.107574 31.722862-40.48554 31.722862z m0-196.717188h-263.864897v-59.861887h263.864897c24.2992 0 40.485539 8.900517 40.48554 32.884655s-16.107574 26.977232-40.48554 26.977232z m40.48554 343.969554c0 24.003829-16.186339 29.340201-40.48554 29.340201h-263.864897V541.554616h263.864897c24.377966 0 40.485539 6.616314 40.48554 30.600452zM354.445384 462.788975c-63.012513 0-118.148461 64.863505-118.148461 137.839872s55.135949 137.839872 118.148461 137.839871 118.148461-64.863505 118.148461-137.839871-47.259385-137.839872-118.148461-137.839872z m0 216.605513c-35.444538 0-59.074231-33.751077-59.074231-78.765641s23.629692-78.765641 59.074231-78.765641 59.074231 33.751077 59.074231 78.765641-23.629692 78.765641-59.074231 78.765641z m26.24865-274.51795H283.556307L129.648245 87.372239h75.496867L245.591268 167.417822h170.921441l59.881578-117.163891h82.507009z m-110.705108-177.970966l62.106707 118.148461 62.1264-118.148461h-124.233107z"  horiz-adv-x="1142" />

    
    <glyph glyph-name="weibo" unicode="&#58954;" d="M909.666462 408.969846s164.824615 293.651692-311.88677 139.500308c59.785846 46.985846 50.097231 142.808615 3.229539 176.797538C426.456615 851.810462 0 447.921231 0 207.832615 0 61.833846 156.711385-128 513.772308-128c449.220923 0 589.784615 246.587077 589.784615 366.631385 0 165.494154-193.890462 170.338462-193.890461 170.338461z m-381.124924-473.796923c-209.250462-19.574154-389.592615 80.068923-402.747076 222.601846-13.312 142.493538 145.565538 273.880615 354.894769 293.454769 209.250462 19.574154 389.632-80.068923 402.825846-222.601846 13.193846-142.493538-145.683692-273.880615-354.973539-293.454769zM454.656 348.396308c-113.309538-19.259077-191.803077-113.939692-175.340308-211.298462 16.384-97.437538 121.540923-160.807385 234.850462-141.587692 113.230769 19.259077 191.763692 113.860923 175.340308 211.298461-16.462769 97.437538-121.540923 160.768-234.850462 141.587693z m-19.692308-277.897846c-36.627692-10.082462-73.806769 9.019077-83.062154 42.653538-9.176615 33.713231 12.996923 69.238154 49.585231 79.36 36.588308 10.161231 73.767385-8.940308 82.983385-42.614154s-12.878769-69.277538-49.506462-79.399384z m95.035077 108.150153a34.146462 34.146462 0 1 0 0 68.371693c18.865231 0 34.028308-15.399385 34.028308-34.185846 0-18.904615-15.163077-34.185846-34.028308-34.185847zM1190.754462 773.041231C1115.529846 869.572923 994.973538 911.438769 851.416615 890.919385a44.386462 44.386462 0 0 1-37.572923-50.294154 44.228923 44.228923 0 0 1 50.057846-37.691077c142.139077 20.361846 218.348308-34.776615 257.181539-84.676923 51.003077-65.536 65.417846-158.956308 35.761231-232.369231a44.504615 44.504615 0 0 1 41.038769-61.164308c17.447385 0 34.028308 10.476308 40.999385 27.766154 41.156923 101.927385 21.858462 230.754462-48.128 320.551385zM893.991385 729.639385a44.504615 44.504615 0 0 1-37.533539-50.25477 44.268308 44.268308 0 0 1 50.057846-37.691077c40.644923 5.828923 72.349538-3.977846 91.332923-28.396307 17.132308-22.055385 22.173538-54.350769 12.445539-78.690462a44.583385 44.583385 0 0 1 40.999384-61.164307c17.447385 0 34.067692 10.476308 40.999385 27.766153 21.858462 53.996308 12.130462 119.492923-24.733538 166.793847-22.567385 29.105231-75.224615 75.736615-173.568 61.636923z"  horiz-adv-x="1260" />

    
    <glyph glyph-name="help-" unicode="&#58898;" d="M511.756 820.882c-241.688 0-438.321-196.145-438.321-437.248 0-241.128 196.632-437.272 438.321-437.272 241.688 0 438.296 196.145 438.296 437.272 0 241.103-196.632 437.248-438.296 437.248M511.756-126.854c-69.071 0-136.094 13.507-199.217 40.131-94.111 40.315-171.299 104.962-225.792 186.124-5.891-8.048-55.323 80.297-76.063 179.195 2.846-30.715-10.685 36.138-10.685 105.038s13.531 135.753 40.229 198.705c40.444 93.907 105.212 170.869 186.459 225.071-7.95 6.036 80.496 55.286 179.456 75.846-35.087-3.916 33.065 10.843 104.664 10.843 0.333 0 0.667-0 1-0.001 69.020 0 136.043-13.507 199.141-40.131 94.152-40.339 171.376-105.013 225.903-186.205 5.789 8.121 55.207-80.229 75.933-179.129-2.828 30.754 10.679-36.098 10.679-104.999s-13.531-135.753-40.204-198.729c-40.481-93.943-105.28-170.937-186.561-225.172 8.035-5.926-80.454-55.188-179.457-75.754 35.229 3.935-32.882-10.834-104.442-10.834-0.367 0-0.734 0-1.1 0.001M512.585 51.322c-26.795 0-48.542 21.675-48.542 48.396s21.748 48.396 48.542 48.396c26.819 0 48.542-21.675 48.542-48.396s-21.723-48.396-48.542-48.396M357.547 514.755c-28.672-0.39-49.25 27.575-40.131 54.686 2.438 7.241 5.242 14.214 8.436 20.968 16.016 33.934 41.040 61.392 72.008 79.948-2.864 1.989 30.31 18.569 67.015 24.746-9.39 0.096 16.869 4.753 45.37 5.118 30.159 0.414 57.807-3.56 82.92-11.874 25.088-8.314 46.763-20.017 64.975-35.084s32.402-33.085 42.594-53.979 15.482-43.886 15.774-68.974c0.028-1.125 0.044-2.449 0.044-3.777 0-27.418-6.762-53.256-18.709-75.938-12.372-23.806-36.168-50.991-70.984-80.711-35.377-29.72-56.856-53.394-64.439-71.046-5.364-12.020-8.753-29.282-10.24-51.81-1.282-19.851-17.567-35.502-37.565-35.767-0.184-0.003-0.394-0.005-0.604-0.005-21.019 0-38.059 17.039-38.059 38.059 0 0.765 0.023 1.525 0.067 2.279 2.019 32.908 7.358 58.508 16.013 76.794 12.239 25.234 34.792 52.151 67.657 80.725 17.14 14.726 30.574 27.355 40.35 37.937s17.115 20.090 22.016 28.501c4.925 8.436 7.973 16.335 9.143 23.747 0.998 6.44 1.568 13.868 1.568 21.43 0 1.072-0.011 2.141-0.034 3.208-0.217 16.274-3.362 31.414-9.408 45.263s-14.36 25.795-24.942 35.84c-15.496 14.485-35.209 24.642-57.103 28.44 5.605-0.062-9.927 2.858-26.141 2.858-1.163 0-2.323-0.015-3.48-0.045-59.928-0.777-98.182-31.058-114.517-90.84-4.907-17.687-20.772-30.49-39.66-30.696z"  horiz-adv-x="1024" />

    
    <glyph glyph-name="scan" unicode="&#58881;" d="M55.808 178.688h-45.568v-250.88c0-25.088 20.378-45.568 45.568-45.568h250.88v45.568h-250.88v250.88zM55.808 840.192h250.88v45.568h-250.88c-25.19 0-45.568-20.378-45.568-45.568v-250.88h45.568v250.88zM968.090-72.192h-250.88v-45.568h250.88c25.19 0 45.568 20.48 45.568 45.568v250.88h-45.568v-250.88zM968.090 885.76h-250.88v-45.568h250.88v-250.88h45.67v250.88c0 25.19-20.378 45.568-45.67 45.568zM990.925 406.835h-957.85c-12.595 0-22.835-10.24-22.835-22.835s10.24-22.835 22.835-22.835h957.952c12.595 0 22.835 10.24 22.835 22.835-0.102 12.595-10.342 22.835-22.938 22.835z"  horiz-adv-x="1024" />

    
    <glyph glyph-name="baogao" unicode="&#58882;" d="M223.906 96H735.5V160.35H223.906V96zM735.5 319.653H223.908v-63.316H735.5v63.316z m128.102-383.646H128.134V800.01H643.85L707.822 864H64.159v-992h863.382V656.414l-63.942-70.111v-650.297h0.003z m-351.35 511.967l117.045 0.095 211.16 210.504L726.38 776.99 512.345 563.613l-0.093-115.64zM959.841 777.6L845.857 896 778.7 829.621 893.245 710.86l66.596 66.74z"  horiz-adv-x="1024" />

    
    <glyph glyph-name="lianjie" unicode="&#58899;" d="M353.5872 406.6304L240.64 293.632A128 128 0 1 1 421.632 112.64l112.9984 112.9472a32 32 0 1 0 45.2608-45.2096l-112.9984-112.9984a192 192 0 0 0-271.5136 271.5136l112.9984 112.9984a32 32 0 1 0 45.2096-45.2608z m362.0352-90.5216a32 32 0 1 0-45.2096 45.2608L783.36 474.368A128 128 0 1 1 602.368 655.36L489.3696 542.4128a32 32 0 1 1-45.2608 45.2096l112.9984 112.9984a192 192 0 0 0 271.5136-271.5136l-112.9984-112.9984z m-135.68 181.1456a31.8464 31.8464 0 0 0 45.2096-0.1024c12.4928-12.4928 12.288-32.9728 0.1024-45.1584l-181.248-181.248a31.8464 31.8464 0 0 0-45.1584 0.1024 32.1536 32.1536 0 0 0-0.1024 45.1584l181.248 181.248z"  horiz-adv-x="1024" />

    
    <glyph glyph-name="book" unicode="&#58966;" d="M996.955405 750.45238c-1.815156 0.265292-18.696111 2.59707-48.78582 2.59707-56.241924 0-155.614757-8.377645-283.178365-52.30443 131.040331 74.211972 265.208316 80.983902 267.037436 80.983902a20.609007 20.609007 0 0 1-1.661566 41.190088c-8.531235-0.349069-167.134019-7.986688-313.882435-102.877481 110.975871 103.589581 273.278781 134.977824 275.415081 135.438594a20.650895 20.650895 0 0 1 16.517924 24.001954C905.862478 893.319154 881.204276 895.399602 884.443632 896c-11.826442-2.178188-272.008172-52.262542-372.567838-244.278167C411.106687 843.29065 151.399691 893.333116 139.615137 895.525267a20.609007 20.609007 0 0 1-7.442141-40.491951c2.164225-0.40492 164.760352-31.667498 275.722261-135.620111C261.035139 814.443626 102.181027 822.123133 93.649791 822.458239a20.609007 20.609007 0 1 1-1.647603-41.190088c1.843082-0.083776 136.192583-6.604377 267.442355-81.137492-127.745124 44.010562-227.243622 52.444058-283.541396 52.444058-30.089708 0-46.998589-2.359703-48.869596-2.624996A30.941436 30.941436 0 0 1 0.685857 717.039539l51.341001-684.900407a30.969361 30.969361 0 0 1 29.74064-28.609658c254.359266-9.11767 409.946097-124.142737 411.481999-125.273719a30.91351 30.91351 0 0 1 32.393561-3.029915 30.508591 30.508591 0 0 1 7.274588 5.04055c19.226695 13.683487 169.745051 115.192619 409.3457 123.75178a30.955398 30.955398 0 0 1 29.726677 28.595695l51.313076 684.91437a30.955398 30.955398 0 0 1-26.361657 32.924145zM480.920396-41.05356c-65.443371 36.680123-193.090755 93.55037-369.300556 105.027743L64.677102 690.566181c3.448797 0.083776 7.162887 0.167553 11.170194 0.167553 71.209983 0 216.939118-14.437475 405.087063-108.909386z m431.44872 105.502476c-176.209801-11.379635-303.857186-68.347621-369.314519-105.01378V582.243231c188.147945 94.56965 333.905006 108.909386 405.114988 108.909385q5.990016 0 11.170194-0.125665z m0 0"  horiz-adv-x="1024" />

    
    <glyph glyph-name="loading" unicode="&#59170;" d="M538.5344 629.5552a133.12 133.12 0 1 0 133.12 133.12 133.4272 133.4272 0 0 0-133.12-133.12zM255.0144 523.8016a121.6768 121.6768 0 1 0 121.6768 121.6768 121.856 121.856 0 0 0-121.6768-121.6768zM134.72 248.57600000000002a107.3664 107.3664 0 1 0 107.3664 107.264A107.52 107.52 0 0 0 134.72 248.57600000000002z m120.32-272.4608a90.9824 90.9824 0 1 0 90.9824 90.9824A91.1616 91.1616 0 0 0 255.04-23.88480000000004zM538.5344-128a79.36 79.36 0 1 0 79.36 79.36 79.36 79.36 0 0 0-79.36-79.36z m287.6928 134.144a64.1792 64.1792 0 1 0 64.1792 64.1792 64.3584 64.3584 0 0 0-64.1792-64.1792z m117.76 296.704a52.6336 52.6336 0 1 0 52.6592 52.6336 52.608 52.608 0 0 0-52.6336-52.6336z m-158.72 338.7136a40.96 40.96 0 1 0 12.0064-28.8512 40.5248 40.5248 0 0 0-12.0064 28.8512z"  horiz-adv-x="1024" />

    
    <glyph glyph-name="book1" unicode="&#58889;" d="M681.908-6.805c-49.759 0-132.699-14.66-145.635-48.497v-0.752c-28.836-0.752-35.657 0-48.545 0-12.913 33.885-95.876 48.545-145.635 48.545H75.095V696.396h290.3c62.647 0 116.823-32.186 146.582-79.686 29.758 47.502 83.958 79.686 146.63 79.686h290.3v-703.201H681.909zM487.727 550.76c0 56.749-61.289 97.09-121.363 97.09H123.638v-606.815h218.453c48.157 0.849 124.106-0.51 145.635-35.972v27.185c-0.923 33.594-0.049 79.469 0 81.362V550.759z m412.635 97.14H657.636c-60.075 0-121.363-40.317-121.363-96.993v-436.714c0.049-1.869 0.923-47.744 0-81.265v-27.161c21.53 35.413 97.478 36.797 145.635 35.923h218.453V647.898z"  horiz-adv-x="1024" />

    
    <glyph glyph-name="mobile" unicode="&#59283;" d="M486.229333 20.48c0 11.946667 4.992 23.808 13.568 32.256 8.576 8.448 20.650667 13.354667 32.810667 13.354667 12.16 0 24.234667-4.906667 32.768-13.354667 8.618667-8.448 13.610667-20.352 13.610667-32.256 0-11.946667-4.992-23.850667-13.610667-32.256-8.533333-8.448-20.608-13.397333-32.768-13.397333-12.16 0-24.234667 4.949333-32.810667 13.397333a45.781333 45.781333 0 0 0-13.568 32.256z m352.64 80.128H226.346667c-19.84 0-36.778667 17.706667-36.778667 37.205333s16.938667 19.626667 36.778667 19.626667h612.522666c19.84 0 36.778667-0.128 36.778667-19.626667a35.626667 35.626667 0 0 0-35.925333-35.328l-0.853334-1.877333z m-22.656-227.242667H249.002667c-43.221333 0-78.336 34.56-78.336 77.013334V818.944C170.666667 861.44 205.781333 896 249.002667 896H816.213333c43.178667 0 78.336-34.56 78.336-77.056v-868.565333c0-42.453333-35.157333-77.013333-78.336-77.013334zM254.208 839.168c-3.626667 0-27.861333-24.874667-27.861333-28.373333v-852.224c0-3.498667 24.234667-28.416 27.861333-28.416h556.8c3.584 0 27.861333 24.917333 27.861333 28.416V810.794667c0 3.498667-24.277333 28.373333-27.861333 28.373333H254.208z"  horiz-adv-x="1024" />

    
    <glyph glyph-name="no-data" unicode="&#58936;" d="M989.704417-119.19776100000001a30.094963 30.094963 0 0 0-42.533948 0L840.634599-12.661890999999969a237.34771 237.34771 0 0 0-152.880814-54.370933 260.821682 260.821682 0 1 0 260.821682 260.820681 248.181697 248.181697 0 0 0-60.189926-160.504804l-4.012996-4.012995 105.732871-105.732871a30.094963 30.094963 0 0 0-0.399999-42.734948zM687.351786 394.420612a200.631755 200.631755 0 1 1 200.632755-200.632755A200.631755 200.631755 0 0 1 687.351786 394.420612z m-501.579388 210.863743a26.683967 26.683967 0 0 0 25.881969 29.893963h489.742402a26.683967 26.683967 0 0 0 26.081968-29.893963 26.683967 26.683967 0 0 0-26.081968-30.294963H211.654367a26.683967 26.683967 0 0 0-26.082969 30.294963z m215.879737-230.927718H211.654367a26.884967 26.884967 0 0 0-26.082969 30.295963 26.884967 26.884967 0 0 0 26.082969 29.893963h189.997768a26.884967 26.884967 0 0 0 26.081968-30.294963 26.884967 26.884967 0 0 0-26.081968-29.894963z m407.283503 100.315877V835.810073H86.660519v-862.716946h381.199535a152.279814 152.279814 0 0 1 60.189926-60.189927H86.660519a67.813917 67.813917 0 0 0-60.189926 60.189927V835.810073A67.813917 67.813917 0 0 0 86.660519 896h722.275119a67.813917 67.813917 0 0 0 60.189926-60.189927v-401.26351a108.340868 108.340868 0 0 1-61.193925 40.125951z"  horiz-adv-x="1024" />

    
    <glyph glyph-name="redianjujiao" unicode="&#58893;" d="M507.750734 62.955711c-179.020979 0-324.624709 144.410256-324.624708 324.624709 0 179.020979 145.60373 323.431235 324.624708 323.431235s324.624709-144.410256 324.624709-323.431235c0-11.934732 9.547786-23.869464 23.869464-23.869464 13.128205 0 23.869464 9.547786 23.869464 23.869464 0 204.083916-165.892774 369.97669-371.170164 369.97669-204.083916 0-369.97669-165.892774-369.97669-369.97669 0-205.277389 165.892774-371.170163 369.97669-371.170164 11.934732 0 23.869464 10.741259 23.869464 23.869464s-11.934732 22.675991-25.062937 22.675991zM507.750734-75.487179C251.153998-75.487179 44.683135 130.983683 44.683135 387.58042 44.683135 642.983683 251.153998 849.454545 507.750734 849.454545s463.067599-206.470862 463.067599-461.874125c0-11.934732 9.547786-23.869464 23.869464-23.869464 13.128205 0 23.869464 9.547786 23.869464 23.869464C1018.557261 669.240093 791.797354 896 508.944207 896 227.284534 896 0.524627 669.240093 0.524627 387.58042c0-282.853147 226.759907-509.613054 508.41958-509.613054 11.934732 0 23.869464 10.741259 23.869464 23.869464 0 14.321678-11.934732 22.675991-25.062937 22.675991zM1007.816002 243.170163L518.491993 407.869464c-19.095571 5.967366-35.804196-11.934732-29.83683-29.83683l164.699301-489.324009c5.967366-19.095571 32.223776-22.675991 41.771562-3.58042l108.60606 210.051282 210.051282 107.412588c14.321678 8.354312 13.128205 34.610723-5.967366 40.578088z"  horiz-adv-x="1024" />

    
    <glyph glyph-name="jigou" unicode="&#59302;" d="M64.1 460.1c0-16.9 16.9-22.5 28.2-22.5h84.5v-338.1h-28.2c-16.9 0-28.2-11.3-28.2-28.2s11.3-28.2 28.2-28.2h726.9c16.9 0 28.2 11.3 28.2 28.2s-11.3 28.2-28.2 28.2h-28.2V437.6h84.5c11.3 0 28.2 0 28.2 28.2 0 11.3-5.6 16.9-11.3 22.5l-417 338.1c-5.6 5.6-16.9 5.6-22.5 5.6-5.6 0-11.3-5.6-16.9-5.6l-417-338.1c-5.6-5.6-11.2-11.3-11.2-28.2zM509.2 770l338.1-276.1H171.2l338 276.1z m-28.1-332.4v-338.1H368.4V437.6h112.7z m56.3 0h112.7v-338.1H537.4V437.6z m-304.3 0h84.5v-338.1h-84.5V437.6zM791 99.5h-84.5V437.6H791v-338.1zM931.8-7.6H92.3c-16.9 0-28.2-11.3-28.2-28.2S75.4-64 92.3-64h839.6c16.9 0 28.2 11.3 28.2 28.2s-11.4 28.2-28.3 28.2z"  horiz-adv-x="1024" />

    
    <glyph glyph-name="soucang" unicode="&#59070;" d="M773.657-75.406L544.572 46.688a66.346 66.346 0 0 1-61.746 0.349l-230.451-119.5c-29.662-15.38-64.086 9.928-58.25 42.827l45.327 255.603a66.348 66.348 0 0 1-18.75 58.832L35.839 467.042c-23.794 23.458-10.362 64.016 22.73 68.634l257.1 35.878a66.346 66.346 0 0 1 50.158 36.01l116.2 232.134c14.956 29.878 57.68 29.637 72.298-0.409l113.569-233.43a66.347 66.347 0 0 1 49.748-36.575l256.676-38.78c33.038-4.991 46.011-45.7 21.953-68.885L809.364 281.474a66.348 66.348 0 0 1-19.413-58.616l42.437-256.099c5.462-32.963-29.245-57.88-58.73-42.165zM544.995 121.833l204.875-109.19c3.361-1.792 7.32 1.05 6.696 4.808l-37.951 229.032a66.348 66.348 0 0 0 19.412 58.616l167.156 161.105c2.743 2.644 1.264 7.285-2.503 7.855l-229.551 34.68a66.347 66.347 0 0 0-49.75 36.576L521.816 754.074c-1.667 3.426-6.538 3.453-8.244 0.047L409.653 546.523a66.346 66.346 0 0 0-50.158-36.012l-229.927-32.085c-3.773-0.527-5.305-5.152-2.592-7.826L292.3 307.616a66.348 66.348 0 0 0 18.75-58.832l-40.537-228.588c-0.665-3.751 3.26-6.637 6.642-4.883L483.25 122.182a66.346 66.346 0 0 0 61.746-0.349z"  horiz-adv-x="1025" />

    
    <glyph glyph-name="ranliaozhibiao" unicode="&#58965;" d="M941.5 42.4H101.7V744.3c0 10.3-8.4 18.7-18.7 18.7s-18.7-8.4-18.7-18.7v-720.6c0-4.9 2-9.7 5.5-13.2 3.4-3.5 8.3-5.5 13.2-5.5h858.5c10.3 0 18.7 8.4 18.7 18.7s-8.4 18.7-18.7 18.7zM377.1 404.8c-19.9 0-36.3-16.3-36.3-36.2V128c0-20 16.4-36.2 36.3-36.2h69.2c19.9 0 36.3 16.3 36.3 36.2V368.6c0 19.9-16.4 36.2-36.3 36.2h-69.2zM197 240.8c-20 0-36.3-16.3-36.3-36.2V128c0-20 16.4-36.2 36.3-36.2h69.2c20 0 36.2 16.3 36.2 36.2v76.6c0 20-16.3 36.2-36.2 36.2H197zM748.6 481.4c-21.1 0-38.2-17.2-38.2-38.2v-313.3c0-21 17.2-38.2 38.2-38.2h65.2c21 0 38.2 17.2 38.2 38.2V443.2c0 21-17.2 38.2-38.2 38.2h-65.2zM557.2 330.3c-20 0-36.3-16.3-36.3-36.2v-166.2c0-20 16.4-36.2 36.3-36.2h69.2c19.9 0 36.3 16.3 36.3 36.2V294.1c0 20-16.4 36.2-36.3 36.2h-69.2zM178.8 351.7c6.7 0 13.4 2.4 18.7 7.2l209.1 188.8 158.2-146.3c5.7-5.3 13.3-7.9 20.9-7.4 7.6 0.5 14.9 4.3 19.7 10.2l164.9 201.5L808 568l15 138-137.9-15.1 45.4-45.5-149.4-182.7-155.3 143.4c-10.6 9.8-27 9.9-37.7 0.3L160 400.4c-11.5-10.3-12.3-28.1-2-39.5 5.5-6.2 13.1-9.2 20.8-9.2z"  horiz-adv-x="1024" />

    
    <glyph glyph-name="icon-test" unicode="&#58904;" d="M82.586566 815.105283C60.249734 815.105283 42.139208 833.218021 42.139208 855.552641 42.139208 877.887262 60.249734 896 82.586566 896h858.826868c22.336832 0 40.447359-18.112738 40.447358-40.447359 0-22.334621-18.110527-40.447359-40.447358-40.447358H82.586566z m465.853432-902.657924c0-22.334621-18.112738-40.447359-40.447358-40.447359-22.336832 0-40.44957 18.112738-40.449571 40.447359V590.763872L182.792691 316.799309c-16.053769-15.443376-41.597374-14.945773-57.040749 1.107995-15.443376 16.053769-14.945773 41.597374 1.107995 57.04075L477.939648 712.727398c7.404328 8.209339 18.123796 13.379984 30.052992 13.379984 11.926984 0 22.646452-5.170645 30.052991-13.379984l351.0775-337.779344c16.053769-15.443376 16.551371-40.986981 1.107995-57.04075s-40.986981-16.551371-57.04075-1.107995L548.439998 590.763872v-678.316513z"  horiz-adv-x="1024" />

    
    <glyph glyph-name="weixin" unicode="&#58900;" d="M939.154286 321.974857a52.224 52.224 0 1 0 0 104.521143 52.224 52.224 0 0 0 0-104.521143m-260.827429 0a52.150857 52.150857 0 1 0-0.146286 104.374857 52.150857 52.150857 0 0 0 0.146286-104.374857M1170.285714 254.902857c0 168.813714-160.182857 305.590857-357.668571 305.590857-197.705143 0-357.888-136.850286-357.888-305.590857s160.182857-305.737143 357.888-305.737143c53.686857 0 104.594286 10.24 150.528 28.379429 47.177143-25.161143 98.596571-51.712 101.156571-52.443429 1.755429-1.974857-8.338286 47.396571-19.382857 97.28 76.580571 56.32 125.366857 139.410286 125.366857 232.594286M260.900571 597.650286A52.150857 52.150857 0 1 0 261.12 702.171429a52.150857 52.150857 0 0 0-0.146286-104.374858M581.485714 702.171429a52.077714 52.077714 0 1 0 0.146286-104.228572 52.077714 52.077714 0 0 0-0.146286 104.228572m212.48-119.222858c12.434286 0 24.649143-0.585143 37.010286-1.755428C802.889143 758.930286 628.516571 896 417.426286 896 186.88 896 0 732.452571 0 530.724571c0-112.786286 58.514286-213.577143 150.235429-280.722285-11.702857-58.660571-26.331429-135.753143-24.137143-133.193143a5313.316571 5313.316571 0 0 1 134.509714 75.264 471.259429 471.259429 0 0 1 156.818286-26.697143c5.851429 0 11.556571 0.146286 17.408 0.292571a311.076571 311.076571 0 0 0-9.801143 78.043429c-0.073143 187.245714 165.010286 339.090286 368.859428 339.090286"  horiz-adv-x="1171" />

    
    <glyph glyph-name="OA1" unicode="&#58953;" d="M874.666667 691.2c-89.6 106.666667-221.866667 170.666667-362.666667 170.666667C247.466667 861.866667 34.133333 648.533333 34.133333 384c0-187.733333 110.933333-362.666667 285.866667-435.2 59.733333-25.6 123.733333-38.4 192-38.4 64 0 128 12.8 192 38.4 68.266667 29.866667 128 72.533333 174.933333 128 72.533333 85.333333 115.2 196.266667 115.2 307.2-4.266667 110.933333-46.933333 221.866667-119.466666 307.2z m68.266666-307.2c0-89.6-29.866667-179.2-81.066666-251.733333-59.733333-85.333333-153.6-145.066667-256-170.666667-34.133333-8.533333-64-12.8-98.133334-12.8-29.866667 0-64 4.266667-98.133333 12.8-196.266667 42.666667-337.066667 221.866667-337.066667 422.4C81.066667 622.933333 273.066667 814.933333 512 814.933333c136.533333 0 268.8-68.266667 349.866667-179.2 55.466667-72.533333 81.066667-162.133333 81.066666-251.733333zM635.733333 567.466667c4.266667 25.6 4.266667 51.2 12.8 81.066666-21.333333-4.266667-42.666667-12.8-59.733333-17.066666-17.066667-4.266667-38.4-8.533333-51.2-12.8-4.266667-21.333333-8.533333-42.666667-21.333333-68.266667-8.533333-25.6-21.333333-51.2-38.4-81.066667s-34.133333-55.466667-55.466667-85.333333c-8.533333-12.8-17.066667-25.6-25.6-34.133333-8.533333-8.533333-12.8-17.066667-17.066667-21.333334-8.533333-8.533333-29.866667-21.333333-55.466666-38.4-25.6-17.066667-46.933333-34.133333-59.733334-51.2-12.8-17.066667-21.333333-42.666667-21.333333-72.533333s0-46.933333 4.266667-46.933333c12.8 0 34.133333 17.066667 64 46.933333 29.866667 29.866667 68.266667 81.066667 115.2 149.333333h68.266666c25.6 0 51.2-4.266667 85.333334-12.8 4.266667-59.733333 21.333333-119.466667 46.933333-179.2l59.733333 21.333334c-34.133333 81.066667-51.2 192-51.2 341.333333V567.466667z m-64-162.133334v-46.933333c-38.4 0-76.8 0-110.933333-4.266667 17.066667 34.133333 38.4 68.266667 55.466667 102.4 21.333333 38.4 38.4 76.8 59.733333 119.466667-4.266667-102.4-4.266667-157.866667-4.266667-170.666667z"  horiz-adv-x="1024" />

    
    <glyph glyph-name="hezi-" unicode="&#59313;" d="M952.38 384.44L773.46 697.86a84.18 84.18 0 0 1-73 42.36H328.34a84.29 84.29 0 0 1-72.52-41.61L72.48 384.92A84.08 84.08 0 0 1 61 342.53999999999996v-238.9c0-41.55 36.13-75.36 80.53-75.36H882.9c44.41 0 80.53 33.81 80.53 75.36V342.79999999999995a84.15 84.15 0 0 1-11.05 41.64zM318 662.27a12 12 0 0 0 10.36 5.95h372.15a12 12 0 0 0 10.42-6.05L870.29 383H703v0.07l-72-0.71a176.43 176.43 0 0 0 1-19 123.33 123.33 0 1 0-246.67 0 195.88 195.88 0 0 0 1 20l-72-0.32H154.77z m564.92-562H141.54c-5.29 0-8.07 2.62-8.53 3.52V311h187.46c22.94-82.37 98.62-143 188.2-143s165.26 60.62 188.2 143h194.56v-207.2c-0.43-0.9-3.24-3.52-8.53-3.52z"  horiz-adv-x="1024" />

    
    <glyph glyph-name="delete" unicode="&#58892;" d="M382.320274 490.642286v-384a20.626286 20.626286 0 0 0-21.577143-21.284572H317.44256a20.626286 20.626286 0 0 0-21.577143 21.357715v384a20.626286 20.626286 0 0 0 21.577143 21.284571h43.154286a20.626286 20.626286 0 0 0 21.577143-21.357714h0.073142z m172.909715 0v-384a20.626286 20.626286 0 0 0-21.650286-21.284572h-43.154286a20.626286 20.626286 0 0 0-21.577143 21.357715v384a20.626286 20.626286 0 0 0 21.577143 21.284571h43.154286a20.626286 20.626286 0 0 0 21.577143-21.357714z m172.909714 0v-384a20.626286 20.626286 0 0 0-21.650286-21.284572h-43.154286a20.626286 20.626286 0 0 0-21.577142 21.357715l-0.073143 384a20.626286 20.626286 0 0 0 21.577143 21.284571h43.227428a20.626286 20.626286 0 0 0 21.577143-21.357714z m86.381714-482.669715V640H209.483703v-631.954286a74.825143 74.825143 0 0 1 14.482286-45.056c3.364571-3.803429 5.778286-5.632 7.094857-5.632h561.883428c1.316571 0 3.657143 1.828571 7.094857 5.632a74.825143 74.825143 0 0 1 14.555429 44.982857zM360.743131 725.357714h302.518858l-32.402286 77.970286a19.017143 19.017143 0 0 1-11.483429 7.314286H405.287131a19.017143 19.017143 0 0 1-11.483428-7.314286l-33.060572-77.970286zM987.431131 704v-42.642286a20.626286 20.626286 0 0 0-21.577142-21.357714h-64.877715v-631.954286c0-36.937143-10.532571-68.754286-31.744-95.744-21.211429-26.843429-46.592-40.301714-76.288-40.301714H231.060846c-29.696 0-55.149714 13.019429-76.288 38.985143-21.211429 26.038857-31.744 57.490286-31.744 94.354286V640H58.151131A20.626286 20.626286 0 0 0 36.573989 661.357714v42.642286a20.626286 20.626286 0 0 0 21.577142 21.357714h208.676572L314.151131 836.681143c6.729143 16.457143 18.870857 30.427429 36.425143 41.984 17.554286 11.556571 35.401143 17.334857 53.394286 17.334857h216.064c17.993143 0 35.84-5.778286 53.394286-17.334857 17.554286-11.556571 29.696-25.6 36.425143-41.984l47.323428-111.323429h208.676572a20.626286 20.626286 0 0 0 21.577142-21.357714z"  horiz-adv-x="1024" />

    
    <glyph glyph-name="dingdan" unicode="&#59085;" d="M916.114 822.857H733.257C733.257 863.25 700.507 896 660.114 896H367.543C327.15 896 294.4 863.25 294.4 822.857H111.543c-40.393 0-73.143-32.75-73.143-73.143v-804.571c0-40.393 32.75-73.143 73.143-73.143h804.571c40.393 0 73.143 32.75 73.143 73.143V749.714c0 40.393-32.75 73.143-73.143 73.143z m-512 0h219.429c20.18 0 36.571-16.358 36.571-36.571 0-20.195-16.391-36.572-36.571-36.572H404.114c-20.213 0-36.571 16.377-36.571 36.572 0 20.213 16.358 36.571 36.571 36.571z m512-841.143c0-20.213-16.391-36.571-36.571-36.571H148.114c-20.213 0-36.571 16.358-36.571 36.571V713.143c0 20.213 16.358 36.571 36.571 36.571H294.4c0-40.393 32.75-73.143 73.143-73.143h292.571c40.393 0 73.143 32.75 73.143 73.143h146.286c20.18 0 36.571-16.358 36.571-36.571v-731.429zM705.47 482.662L438.846 216.057 317.901 337.002c-13.714 13.714-35.965 13.714-49.642 0h-0.037c-13.714-13.714-13.714-35.928 0-49.642l140.522-140.485c1.602-2.802 3.555-5.446 5.943-7.838 7.391-7.39 17.126-11 26.847-10.872a34.965 34.965 0 0 1 23.241 8.407 39.38 39.38 0 0 1 2.98 2.677l290.572 290.553c14.713 14.698 14.786 38.466 0.18 53.073-14.571 14.588-38.357 14.5-53.037-0.213z"  horiz-adv-x="1024" />

    


  </font>
</defs>
</svg>
